<?xml version="1.0" standalone="no"?><!DOCTYPE svg PUBLIC "-//W3C//DTD SVG 1.1//EN" "http://www.w3.org/Graphics/SVG/1.1/DTD/svg11.dtd"><svg class="icon" height="512" viewBox="0 0 1024 1024" version="1.1" xmlns="http://www.w3.org/2000/svg"><path d="M186.315965 881.153027a7.679999 7.679999 0 0 1-2.329999-0.256c-0.384 0-0.64 0.256-1.05 0.256h3.379999zM143.589973 553.730087a81.919985 81.919985 0 1 1 82.609985 80.895985 81.355985 81.355985 0 0 1-82.609985-80.895985z m65.125988-272.125949a80.895985 80.895985 0 0 1 56.31999-54.27199 81.919985 81.919985 0 1 1 17.355997 161.02297 81.202985 81.202985 0 0 1-73.803987-106.75098zM531.989901 122.117167a82.098985 82.098985 0 1 1-80.920985 82.942985 81.483985 81.483985 0 0 1 80.919985-82.942985z m-253.873953 684.539873c28.876995-49.663991 75.723986-127.742976 191.486965-132.094975-0.256 3.071999 2.56-26.623995 2.559999-26.623995 17.612997-82.943985 26.546995-124.670977 98.405982-193.279964 52.04399-49.149991 180.350967-162.81397 269.41295-240.893956a120.319978 120.319978 0 0 0 21.759996-42.495992C861.74284 60.165179 678.524874 0.00519 503.753907 0.00519 223.716958-1.27481-1.587 234.244147 0.102 516.611094a563.683895 563.683895 0 0 0 120.012978 325.37394 97.279982 97.279982 0 0 0 63.999988 38.911993c46.078991-0.256 66.020988-26.111995 94.129982-74.239987zM840.008844 613.890076c-30.412994 74.751986-104.729981 183.039966-225.919958 183.039966v0.767c0 148.479972-65.509988 201.214963-81.918985 225.022958 15.001997 0 96.306982-10.495998 96.306982-10.495998 157.054971-28.927995 274.737949-134.142975 247.959954-275.198949-7.397999-38.654993-38.066993-119.294978-36.529993-123.134977zM978.809818 169.988158s-285.233947 252.414953-366.666932 329.469939c-62.539988 59.903989-64.357988 87.551984-84.683984 181.503967a14.847997 14.847997 0 0 0 4.786999 14.079997l57.88099 48.639991a14.130997 14.130997 0 0 0 9.318998 3.326999 14.539997 14.539997 0 0 0 5.707999-1.023999c86.732984-36.350993 113.663979-43.262992 159.76997-116.222979 61.105989-95.999982 254.666953-425.725921 254.666953-425.725921a26.699995 26.699995 0 0 0-40.779993-34.047994z m-431.27992 630.269884l-68.224987-61.184989a14.565997 14.565997 0 0 0-10.085998-3.328h-0.538c-165.963969 0-115.608979 205.566962-265.546951 205.566962a170.341968 170.341968 0 0 1-41.164992-18.942996C205.489962 1005.824003 280.959948 1024 349.053935 1024c106.16298 0 211.813961-72.447987 204.184962-212.734961a14.924997 14.924997 0 0 0-5.708999-11.007997" fill="" /></svg>