<?xml version="1.0" encoding="utf-8"?>
<!-- Generator: Adobe Illustrator 23.0.4, SVG Export Plug-In . SVG Version: 6.00 Build 0)  -->
<svg version="1.1" id="Layer_1" xmlns="http://www.w3.org/2000/svg" xmlns:xlink="http://www.w3.org/1999/xlink" x="0px" y="0px"
	 viewBox="0 0 40 40" style="enable-background:new 0 0 40 40;" xml:space="preserve">
<path d="M18.5,0c1,0,2.1,0,3.1,0c0.4,0.1,0.8,0.2,1.2,0.2c8.1,1.1,14.8,7.2,16.7,15.1c0.2,1,0.4,2.1,0.6,3.1c0,1,0,2.1,0,3.1
	c-0.1,0.4-0.2,0.8-0.2,1.2c-1.1,8.1-7.2,14.8-15.1,16.7c-1,0.2-2.1,0.4-3.1,0.6c-1,0-2.1,0-3.1,0c-0.4-0.1-0.8-0.2-1.2-0.2
	C9.2,38.7,2.4,32.6,0.6,24.7c-0.2-1-0.4-2.1-0.6-3.1c0-1,0-2.1,0-3.1c0.1-0.4,0.2-0.8,0.2-1.3c1-7.9,7.2-14.8,15-16.6
	C16.3,0.3,17.4,0.2,18.5,0z M20,1.5C9.8,1.5,1.5,9.8,1.5,20c0,10.2,8.3,18.5,18.5,18.5c10.2,0,18.5-8.3,18.5-18.5
	C38.5,9.8,30.2,1.5,20,1.5z"/>
<path d="M13.3,25c-0.2,3.4-0.3,6.7-0.5,10.1c-5.3-2.3-10.4-8.7-9.5-16.9c0.9-8.2,7.5-14.5,15.5-15C27.1,2.7,34.4,8,36.4,16
	c2,8.1-2.3,15.4-7.9,18.5c0-0.1-0.1-0.2-0.1-0.3c-0.1-2.6-0.3-5.2-0.4-7.8c0-0.4,0.1-0.5,0.4-0.7c0.5-0.2,1-0.4,1.5-0.7
	c1.1-0.7,1.7-1.7,1.6-3.1c-0.2-2.9-0.4-5.9-0.6-8.8c-0.1-0.7-0.2-1.5-0.2-2.2c0-0.6-0.3-0.7-0.9-0.6c0,3.7,0,7.4,0,11.2
	c-0.4,0-0.7,0-1,0c0-3.7,0-7.5,0-11.2c-0.4,0-0.8,0-1.2,0c0,3.7,0,7.5,0,11.2c-0.4,0-0.7,0-1,0c0-3.8,0-7.5,0-11.2
	c-0.4,0-0.7,0-1.1,0c0,3.7,0,7.5,0,11.2c-0.4,0-0.7,0-1.1,0c0-3.7,0-7.5,0-11.2C23.3,10,23.3,10,23.2,11c-0.3,3.2-0.6,6.4-0.8,9.5
	c0,0.4,0,0.7,0,1.1c-0.1,2.1,0.8,3.1,2.8,3.9c0.6,0.3,0.8,0.5,0.8,1.2c-0.2,2.8-0.3,5.5-0.4,8.3c0,0.9,0,0.9-0.9,1.2
	c-2.7,0.7-5.3,0.8-8,0.2c-0.3-0.1-0.5-0.2-0.5-0.6c-0.2-3.5-0.4-6.9-0.5-10.4c0-0.2,0.1-0.5,0.3-0.6c2.4-0.7,3.6-2.6,4.2-4.9
	c0.6-2.5,0.5-4.9-1-7.1c-1-1.5-2.3-2.6-4.2-2.8c-2.1-0.2-3.6,1-4.8,2.6c-2.6,3.4-1.5,8.4,0.5,10.6C11.2,24.2,12.2,24.7,13.3,25z"/>
<path d="M11,14.9c-0.3,1.6-0.6,3.1-0.2,4.6c0.4,1.5,0.9,2.9,2.1,4c-1.2,0.1-2.6-1.5-3.2-3.5C9.2,18.3,9.9,15.5,11,14.9z"/>
</svg>
